<svg width="16" height="16" viewBox="0 0 16 16" fill="none" xmlns="http://www.w3.org/2000/svg">
<path d="M1.91671 12.0771C1.94734 11.8015 1.96265 11.6636 2.00436 11.5348C2.04136 11.4205 2.09364 11.3117 2.15977 11.2114C2.23432 11.0984 2.33238 11.0003 2.5285 10.8042L11.3327 2.00004C12.0691 1.26366 13.263 1.26366 13.9994 2.00004C14.7357 2.73642 14.7357 3.93033 13.9994 4.66671L5.19517 13.4709C4.99905 13.667 4.90098 13.7651 4.78794 13.8396C4.68765 13.9058 4.57888 13.958 4.46458 13.995C4.33575 14.0367 4.19792 14.0521 3.92226 14.0827L1.66602 14.3334L1.91671 12.0771Z" stroke="#000" stroke-width="1.33333" stroke-linecap="round" stroke-linejoin="round"/>
</svg>
